<svg xmlns="http://www.w3.org/2000/svg" enable-background="new 0 0 24 24" viewBox="0 0 24 24" id="meeting-board">  <path fill="#000000" d="M21,4h-8V3c0-0.6-0.4-1-1-1s-1,0.4-1,1v1H3C2.4,4,2,4.4,2,5v10c0,1.7,1.3,3,3,3h4.6l-2.3,2.3c-0.4,0.4-0.4,1,0,1.4c0.4,0.4,1,0.4,1.4,0c0,0,0,0,0,0l2.3-2.3V21c0,0.6,0.4,1,1,1s1-0.4,1-1v-1.6l2.3,2.3c0.4,0.4,1,0.4,1.4,0c0.4-0.4,0.4-1,0-1.4L14.4,18H19c1.7,0,3-1.3,3-3V5C22,4.4,21.6,4,21,4z M7,8h2c0.6,0,1,0.4,1,1s-0.4,1-1,1H7c-0.6,0-1-0.4-1-1S6.4,8,7,8z M13,14H7c-0.6,0-1-0.4-1-1s0.4-1,1-1h6c0.6,0,1,0.4,1,1S13.6,14,13,14z"></path></svg>