<svg xmlns="http://www.w3.org/2000/svg" enable-background="new 0 0 24 24" viewBox="0 0 24 24" id="capture">  <path fill="#FFFFFF" d="M12,8c-2.2,0-4,1.8-4,4s1.8,4,4,4s4-1.8,4-4C16,9.8,14.2,8,12,8z M3,9L3,9c0.6,0,1-0.4,1-1V5c0-0.6,0.4-1,1-1h3c0.6,0,1-0.4,1-1S8.6,2,8,2H5C3.3,2,2,3.3,2,5v3C2,8.6,2.4,9,3,9z M8,20H5c-0.6,0-1-0.4-1-1v-3c0-0.6-0.4-1-1-1s-1,0.4-1,1v3c0,1.7,1.3,3,3,3h3c0.6,0,1-0.4,1-1S8.6,20,8,20z M21,15L21,15c-0.6,0-1,0.4-1,1v3c0,0.6-0.4,1-1,1h-3c-0.6,0-1,0.4-1,1s0.4,1,1,1h3c1.7,0,3-1.3,3-3v-3C22,15.4,21.6,15,21,15z M19,2h-3c-0.6,0-1,0.4-1,1s0.4,1,1,1h3c0.6,0,1,0.4,1,1v3c0,0.6,0.4,1,1,1s1-0.4,1-1V5C22,3.3,20.7,2,19,2z"></path></svg>