<svg width="500" height="500" viewBox="0 0 500 500" fill="none" xmlns="http://www.w3.org/2000/svg">
<path d="M483 328.5C483 323.806 479.194 320 474.5 320C469.806 320 466 323.806 466 328.5V482.5C466 487.194 469.806 491 474.5 491C479.194 491 483 487.194 483 482.5V328.5Z" fill="white"/>
<path d="M449 294.5C449 289.806 445.194 286 440.5 286C435.806 286 432 289.806 432 294.5V448.5C432 453.194 435.806 457 440.5 457C445.194 457 449 453.194 449 448.5V294.5Z" fill="white"/>
<path d="M68 294.5C68 289.806 64.1944 286 59.5 286C54.8056 286 51 289.806 51 294.5V448.5C51 453.194 54.8056 457 59.5 457C64.1944 457 68 453.194 68 448.5V294.5Z" fill="white"/>
<path d="M34 328.5C34 323.806 30.1944 320 25.5 320C20.8056 320 17 323.806 17 328.5V482.5C17 487.194 20.8056 491 25.5 491C30.1944 491 34 487.194 34 482.5V328.5Z" fill="white"/>
<path d="M250 121C280.928 121 306 95.7041 306 64.5C306 33.2959 280.928 8 250 8C219.072 8 194 33.2959 194 64.5C194 95.7041 219.072 121 250 121Z" fill="white"/>
<path d="M137 207C137 162.817 172.817 127 217 127H283C327.183 127 363 162.817 363 207V229C363 235.627 357.627 241 351 241H149C142.373 241 137 235.627 137 229V207Z" fill="white"/>
<path d="M15.1122 267.641C16.2364 262.034 21.1601 258 26.8779 258H473.122C478.84 258 483.764 262.034 484.888 267.641L497.12 328.641C498.61 336.068 492.93 343 485.355 343H14.6453C7.07027 343 1.39016 336.068 2.87958 328.641L15.1122 267.641Z" fill="white"/>
</svg>
